<svg xmlns="http://www.w3.org/2000/svg" width="320" height="190" viewBox="0 0 320 190" fill="none">
    <path
        d="M58.7201 48.3353C53.0661 45.9147 51.0706 45.6044 47.7447 51.3764L58.7825 55.8451L58.7201 48.3353ZM46.352 102C46.4143 103.159 46.4143 105.642 48.0773 105.497L58.8033 102H46.352ZM59.1774 63.3963C58.9903 62.548 58.8241 60.2103 58.6993 60.0655L44.6683 54.4383L42.2362 60.2723C42.5272 61.555 56.2881 64.1824 58.4499 64.141C59.9673 64.0997 59.3645 64.3065 59.1774 63.3963ZM40.1159 81.3329L41.2592 86.1947C47.1627 87.1877 53.1285 87.767 59.1566 87.5394C59.9881 87.498 61.7134 88.0566 61.5471 86.8567L40.1159 81.3329ZM61.4848 75.1472L61.0898 74.5679L43.0677 67.658L41.1345 68.2166L40.7811 73.43L61.8173 77.0091C61.6926 76.3885 61.5887 75.7678 61.4848 75.1472ZM41.5087 93.0424L42.8806 98.5455C47.6408 98.1111 52.3594 97.0973 57.078 96.4974C59.3853 96.1871 63.0646 97.5318 64.3326 95.1113L41.5087 93.0424ZM40.1159 75.8299L40.1575 79.9261C42.8182 79.7399 45.084 81.3743 47.5576 81.8501C51.32 82.5742 59.1566 83.8155 62.8151 83.9396C63.9168 83.981 64.7067 84.0017 65.0185 82.719L40.1159 75.8299ZM179.138 70.6578C178.244 71.1957 177.392 70.5337 177.766 72.3749C181.133 71.9198 185 69.251 187.453 66.8719C184.709 67.7408 181.591 69.2303 179.138 70.6578ZM188.825 72.3749C194.333 70.5337 199.634 67.1615 204.041 63.4376C198.698 65.7754 193.335 68.6511 188.825 72.3749ZM198.511 86.1533C203.812 85.6568 209.196 81.2502 213.041 77.8987C208.032 80.2158 202.565 82.2432 198.511 86.1533ZM209.05 53.5487C206.93 53.9831 193.211 62.1136 190.945 63.81C190.155 64.41 189.157 65.2168 188.825 66.1685L209.819 55.7416L211.648 53.7969C210.671 53.6521 210.089 53.3211 209.05 53.5487ZM219.256 60.6654L185.374 80.6295C186.912 80.795 188.305 80.3813 189.698 79.7813C195.684 77.1746 203.105 71.2578 208.676 67.6787C209.611 67.0994 220.233 61.5343 219.256 60.6654ZM219.735 93.1666L212.355 97.8628C215.328 98.8765 215.556 96.8905 216.305 96.4974C218.487 95.3802 221.252 94.4906 222.728 92.3597L219.735 93.1666ZM229.629 73.7611C220.171 77.9401 211.441 83.7534 204.041 90.9736C205.891 91.0357 207.574 89.691 209.112 88.7807C214.912 85.3051 222.229 80.4433 227.717 76.4712C228.07 76.2229 230.336 74.361 229.629 73.7611ZM229.089 60.2517C226.469 61.2033 223.892 62.6722 221.543 63.9755C212.854 68.7752 204.581 74.961 196.433 80.6295C207.907 75.9126 217.697 68.4028 228.631 62.7549L230.585 61.2447L229.089 60.2517ZM223.414 107.504C229.546 104.586 236.385 101.649 241.394 97.1801C235.304 100.118 228.34 102.828 223.414 107.504ZM226.885 111.972L229.629 112.655L241.394 104.069L226.885 111.972ZM241.477 113.441C240.563 113.979 238.256 115.096 238.63 116.461C242.496 114.869 246.57 113.089 249.709 110.276C247.277 110.421 243.639 112.2 241.477 113.441ZM243.244 69.9751C239.42 71.7336 235.886 74.4438 233.1 77.1953C237.029 76.0781 241.29 73.5749 245.011 71.2164C244.429 70.8026 243.826 70.3889 243.244 69.9751ZM250 74.7127L237.029 81.4571L233.1 84.7672C234.285 84.912 235.262 84.6844 236.364 84.25C239.357 83.0501 246.737 78.3331 249.917 76.3678C250.291 76.1402 250.769 75.8919 251.247 75.6023C250.832 75.3127 250.416 75.0023 250 74.7127ZM259.022 81.1054C251.102 84.5396 242.434 88.8634 235.262 93.4769C234.348 94.0769 227.259 98.8765 228.257 99.9316L259.167 81.2088C259.167 81.2088 259.063 81.1261 259.022 81.1054ZM251.767 123.351C254.802 122.378 257.566 120.806 259.999 118.799L265.611 112.324C264.967 111.703 252.786 122.027 251.767 123.351ZM266.63 86.5257C261.786 88.6359 248.857 97.5732 247.63 99.9316C249.501 100.449 263.99 90.6426 267.607 87.2291C267.295 87.0015 266.962 86.7532 266.63 86.5257ZM273.219 113.007C276.607 112.572 280.744 110.069 282.906 107.504C279.725 108.765 275.256 110.338 273.219 113.007ZM266.339 123.061L260.082 128.854L269.581 123.558L284.963 112.345C277.938 113.917 272.845 120.041 266.339 123.061ZM282.199 140.212C280.39 140.729 264.405 150.08 263.511 151.238C261.121 154.3 261.204 165.306 260.082 169.506L282.261 156.824L284.963 139.881C284.007 139.756 283.113 139.943 282.199 140.212ZM291.407 135.95L287.749 153.659C292.613 149.645 306.457 145.032 308.182 139.239C309.513 134.791 309.263 129.143 311.259 124.737C309.949 123.723 293.715 134.15 291.407 135.95ZM58.7201 48.3353C53.0661 45.9147 51.0706 45.6044 47.7447 51.3764L58.7825 55.8451L58.7201 48.3353ZM46.352 102C46.4143 103.159 46.4143 105.642 48.0773 105.497L58.8033 102H46.352ZM59.1774 63.3963C58.9903 62.548 58.8241 60.2103 58.6993 60.0655L44.6683 54.4383L42.2362 60.2723C42.5272 61.555 56.2881 64.1824 58.4499 64.141C59.9673 64.0997 59.3645 64.3065 59.1774 63.3963ZM40.1159 81.3329L41.2592 86.1947C47.1627 87.1877 53.1285 87.767 59.1566 87.5394C59.9881 87.498 61.7134 88.0566 61.5471 86.8567L40.1159 81.3329ZM61.4848 75.1472L61.0898 74.5679L43.0677 67.658L41.1345 68.2166L40.7811 73.43L61.8173 77.0091C61.6926 76.3885 61.5887 75.7678 61.4848 75.1472ZM41.5087 93.0424L42.8806 98.5455C47.6408 98.1111 52.3594 97.0973 57.078 96.4974C59.3853 96.1871 63.0646 97.5318 64.3326 95.1113L41.5087 93.0424ZM40.1159 75.8299L40.1575 79.9261C42.8182 79.7399 45.084 81.3743 47.5576 81.8501C51.32 82.5742 59.1566 83.8155 62.8151 83.9396C63.9168 83.981 64.7067 84.0017 65.0185 82.719L40.1159 75.8299ZM179.138 70.6578C178.244 71.1957 177.392 70.5337 177.766 72.3749C181.133 71.9198 185 69.251 187.453 66.8719C184.709 67.7408 181.591 69.2303 179.138 70.6578ZM188.825 72.3749C194.333 70.5337 199.634 67.1615 204.041 63.4376C198.698 65.7754 193.335 68.6511 188.825 72.3749ZM198.511 86.1533C203.812 85.6568 209.196 81.2502 213.041 77.8987C208.032 80.2158 202.565 82.2432 198.511 86.1533ZM209.05 53.5487C206.93 53.9831 193.211 62.1136 190.945 63.81C190.155 64.41 189.157 65.2168 188.825 66.1685L209.819 55.7416L211.648 53.7969C210.671 53.6521 210.089 53.3211 209.05 53.5487ZM219.256 60.6654L185.374 80.6295C186.912 80.795 188.305 80.3813 189.698 79.7813C195.684 77.1746 203.105 71.2578 208.676 67.6787C209.611 67.0994 220.233 61.5343 219.256 60.6654ZM219.735 93.1666L212.355 97.8628C215.328 98.8765 215.556 96.8905 216.305 96.4974C218.487 95.3802 221.252 94.4906 222.728 92.3597L219.735 93.1666ZM229.629 73.7611C220.171 77.9401 211.441 83.7534 204.041 90.9736C205.891 91.0357 207.574 89.691 209.112 88.7807C214.912 85.3051 222.229 80.4433 227.717 76.4712C228.07 76.2229 230.336 74.361 229.629 73.7611ZM229.089 60.2517C226.469 61.2033 223.892 62.6722 221.543 63.9755C212.854 68.7752 204.581 74.961 196.433 80.6295C207.907 75.9126 217.697 68.4028 228.631 62.7549L230.585 61.2447L229.089 60.2517ZM223.414 107.504C229.546 104.586 236.385 101.649 241.394 97.1801C235.304 100.118 228.34 102.828 223.414 107.504ZM226.885 111.972L229.629 112.655L241.394 104.069L226.885 111.972ZM241.477 113.441C240.563 113.979 238.256 115.096 238.63 116.461C242.496 114.869 246.57 113.089 249.709 110.276C247.277 110.421 243.639 112.2 241.477 113.441ZM243.244 69.9751C239.42 71.7336 235.886 74.4438 233.1 77.1953C237.029 76.0781 241.29 73.5749 245.011 71.2164C244.429 70.8026 243.826 70.3889 243.244 69.9751ZM250 74.7127L237.029 81.4571L233.1 84.7672C234.285 84.912 235.262 84.6844 236.364 84.25C239.357 83.0501 246.737 78.3331 249.917 76.3678C250.291 76.1402 250.769 75.8919 251.247 75.6023C250.832 75.3127 250.416 75.0023 250 74.7127ZM259.022 81.1054C251.102 84.5396 242.434 88.8634 235.262 93.4769C234.348 94.0769 227.259 98.8765 228.257 99.9316L259.167 81.2088C259.167 81.2088 259.063 81.1261 259.022 81.1054ZM251.767 123.351C254.802 122.378 257.566 120.806 259.999 118.799L265.611 112.324C264.967 111.703 252.786 122.027 251.767 123.351ZM266.63 86.5257C261.786 88.6359 248.857 97.5732 247.63 99.9316C249.501 100.449 263.99 90.6426 267.607 87.2291C267.295 87.0015 266.962 86.7532 266.63 86.5257ZM273.219 113.007C276.607 112.572 280.744 110.069 282.906 107.504C279.725 108.765 275.256 110.338 273.219 113.007ZM266.339 123.061L260.082 128.854L269.581 123.558L284.963 112.345C277.938 113.917 272.845 120.041 266.339 123.061ZM282.199 140.212C280.39 140.729 264.405 150.08 263.511 151.238C261.121 154.3 261.204 165.306 260.082 169.506L282.261 156.824L284.963 139.881C284.007 139.756 283.113 139.943 282.199 140.212ZM291.407 135.95L287.749 153.659C292.613 149.645 306.457 145.032 308.182 139.239C309.513 134.791 309.263 129.143 311.259 124.737C309.949 123.723 293.715 134.15 291.407 135.95ZM229.089 60.2517C226.469 61.2033 223.892 62.6722 221.543 63.9755C212.854 68.7752 204.581 74.961 196.433 80.6295C207.907 75.9126 217.697 68.4028 228.631 62.7549L230.585 61.2447L229.089 60.2517ZM219.256 60.6654L185.374 80.6295C186.912 80.795 188.305 80.3813 189.698 79.7813C195.684 77.1746 203.105 71.2578 208.676 67.6787C209.611 67.0994 220.233 61.5343 219.256 60.6654ZM229.629 73.7611C220.171 77.9401 211.441 83.7534 204.041 90.9736C205.891 91.0357 207.574 89.691 209.112 88.7807C214.912 85.3051 222.229 80.4433 227.717 76.4712C228.07 76.2229 230.336 74.361 229.629 73.7611ZM259.022 81.1054C251.102 84.5396 242.434 88.8634 235.262 93.4769C234.348 94.0769 227.259 98.8765 228.257 99.9316L259.167 81.2088C259.167 81.2088 259.063 81.1261 259.022 81.1054ZM209.05 53.5487C206.93 53.9831 193.211 62.1136 190.945 63.81C190.155 64.41 189.157 65.2168 188.825 66.1685L209.819 55.7416L211.648 53.7969C210.671 53.6521 210.089 53.3211 209.05 53.5487ZM266.339 123.061L260.082 128.854L269.581 123.558L284.963 112.345C277.938 113.917 272.845 120.041 266.339 123.061ZM266.63 86.5257C261.786 88.6359 248.857 97.5732 247.63 99.9316C249.501 100.449 263.99 90.6426 267.607 87.2291C267.295 87.0015 266.962 86.7532 266.63 86.5257ZM250 74.7127L237.029 81.4571L233.1 84.7672C234.285 84.912 235.262 84.6844 236.364 84.25C239.357 83.0501 246.737 78.3331 249.917 76.3678C250.291 76.1402 250.769 75.8919 251.247 75.6023C250.832 75.3127 250.416 75.0023 250 74.7127ZM243.244 69.9751C239.42 71.7336 235.886 74.4438 233.1 77.1953C237.029 76.0781 241.29 73.5749 245.011 71.2164C244.429 70.8026 243.826 70.3889 243.244 69.9751ZM251.767 123.351C254.802 122.378 257.566 120.806 259.999 118.799L265.611 112.324C264.967 111.703 252.786 122.027 251.767 123.351ZM223.414 107.504C229.546 104.586 236.385 101.649 241.394 97.1801C235.304 100.118 228.34 102.828 223.414 107.504ZM198.511 86.1533C203.812 85.6568 209.196 81.2502 213.041 77.8987C208.032 80.2158 202.565 82.2432 198.511 86.1533ZM226.885 111.972L229.629 112.655L241.394 104.069L226.885 111.972ZM188.825 72.3749C194.333 70.5337 199.634 67.1615 204.041 63.4376C198.698 65.7754 193.335 68.6511 188.825 72.3749ZM241.477 113.441C240.563 113.979 238.256 115.096 238.63 116.461C242.496 114.869 246.57 113.089 249.709 110.276C247.277 110.421 243.639 112.2 241.477 113.441ZM219.735 93.1666L212.355 97.8628C215.328 98.8765 215.556 96.8905 216.305 96.4974C218.487 95.3802 221.252 94.4906 222.728 92.3597L219.735 93.1666ZM179.138 70.6578C178.244 71.1957 177.392 70.5337 177.766 72.3749C181.133 71.9198 185 69.251 187.453 66.8719C184.709 67.7408 181.591 69.2303 179.138 70.6578ZM273.219 113.007C276.607 112.572 280.744 110.069 282.906 107.504C279.725 108.765 275.256 110.338 273.219 113.007ZM61.4848 75.1472L61.0898 74.5679L43.0677 67.658L41.1345 68.2166L40.7811 73.43L61.8173 77.0091C61.6926 76.3885 61.5887 75.7678 61.4848 75.1472ZM59.1774 63.3963C58.9903 62.548 58.8241 60.2103 58.6993 60.0655L44.6683 54.4383L42.2362 60.2723C42.5272 61.555 56.2881 64.1824 58.4499 64.141C59.9673 64.0997 59.3645 64.3065 59.1774 63.3963ZM41.5087 93.0424L42.8806 98.5455C47.6408 98.1111 52.3594 97.0973 57.078 96.4974C59.3853 96.1871 63.0646 97.5318 64.3326 95.1113L41.5087 93.0424ZM40.1159 75.8299L40.1575 79.9261C42.8182 79.7399 45.084 81.3743 47.5576 81.8501C51.32 82.5742 59.1566 83.8155 62.8151 83.9396C63.9168 83.981 64.7067 84.0017 65.0185 82.719L40.1159 75.8299ZM58.7201 48.3353C53.0661 45.9147 51.0706 45.6044 47.7447 51.3764L58.7825 55.8451L58.7201 48.3353ZM40.1159 81.3329L41.2592 86.1947C47.1627 87.1877 53.1285 87.767 59.1566 87.5394C59.9881 87.498 61.7134 88.0566 61.5471 86.8567L40.1159 81.3329ZM46.352 102C46.4143 103.159 46.4143 105.642 48.0773 105.497L58.8033 102H46.352ZM282.199 140.212C280.39 140.729 264.405 150.08 263.511 151.238C261.121 154.3 261.204 165.306 260.082 169.506L282.261 156.824L284.963 139.881C284.007 139.756 283.113 139.943 282.199 140.212ZM291.407 135.95L287.749 153.659C292.613 149.645 306.457 145.032 308.182 139.239C309.513 134.791 309.263 129.143 311.259 124.737C309.949 123.723 293.715 134.15 291.407 135.95ZM318.347 113.669C287.603 92.1942 258.19 68.6511 226.781 48.1697C209.009 36.5637 188.45 23.5301 169.701 13.7446C143.135 -0.116513 131.141 -4.91618 101.686 6.00719C96.1779 8.07601 87.1357 13.5998 82.0013 14.6549C73.6866 16.3513 65.9123 14.8411 57.1403 18.8132C26.9163 32.4674 13.987 58.2242 16.814 90.9116C17.687 101.152 22.177 110.689 27.1658 119.503C10.765 126.64 -4.24304 139.881 1.09916 159.596C3.98852 170.354 12.3656 174.885 22.1562 178.588C30.658 181.795 39.5131 181.774 48.5346 181.402L49.3037 178.05L45.1671 176.685C46.9548 176.85 48.6385 176.437 49.3037 174.616C35.6884 170.913 7.12733 166.237 14.6937 146.004C17.5623 138.329 28.3922 133.633 35.1479 129.847C43.5458 136.757 50.6756 141.349 62.1084 140.853C84.0592 139.881 93.143 121.282 100.834 103.676C111.165 110.048 121.122 117.186 131.682 123.247C136.816 126.185 144.507 131.191 150.12 132.433C153.653 133.198 158.206 132.805 161.635 133.343C181.092 136.467 213.498 157.61 229.089 170.189C231.375 172.051 235.325 174.719 237.133 176.643C241.374 181.195 242.496 189.801 249.667 189.967C259.541 184.381 268.521 177.202 279.164 173.106L312.631 152.376L319.095 115.055L318.347 113.669ZM6.89867 142.301L7.50149 145.756L8.95656 147.97L8.18745 149.935L5.4436 145.756L6.89867 142.301ZM4.30032 150.825C4.50819 151.094 6.08799 152.459 6.08799 152.459L6.12956 153.597L4.79921 152.831L4.30032 150.825ZM10.2869 163.32L7.29362 162.782L4.92393 159.865L7.75093 160.941L10.9313 162.348L10.2869 163.32ZM32.6327 175.237L32.5496 175.919C32.5496 175.919 28.9742 176.602 28.8495 176.602C28.7248 176.602 27.6855 175.319 27.6855 175.319L32.6327 175.237ZM23.8399 172.547V173.954L20.8258 174.43L16.7724 172.671L23.8399 172.547ZM13.7167 167.851L16.71 168.616L16.5853 170.375L14.0285 169.651L11.1807 167.292L13.7167 167.851ZM12.9061 139.301L11.0145 141.349L11.0976 136.695L13.1139 134.915L14.3611 135.515L12.9061 139.301ZM188.159 55.8451C187.723 57.1484 187.286 57.2105 186.06 56.9209C183.399 56.2795 177.537 52.597 175.708 50.342C180.24 51.1488 183.877 54.3348 188.159 55.8451ZM170.158 28.9918C168.37 33.5018 165.294 37.6395 165.315 42.7494L156.356 36.8947L170.158 28.9918ZM76.6591 35.4465C89.5677 40.2668 104.264 49.8869 116.154 57.0864C133.324 67.4718 151.013 79.0159 167.539 90.9736C180.136 100.076 191.568 110.524 204.248 119.192C204.56 119.399 206.951 119.751 205.62 120.889C205.101 121.323 199.488 117.289 198.49 116.627C189.926 110.834 181.965 104.028 173.463 98.1731C141.223 75.9333 107.32 56.6726 74.2271 35.7982C72.2315 33.8328 76.1187 35.2603 76.6591 35.4465ZM72.19 54.3555C70.818 53.197 69.0304 52.0591 69.363 49.9282C75.4327 54.9348 83.0822 58.1828 88.0503 64.3893L72.19 54.3555ZM88.0503 70.5957L70.9427 59.7345L69.363 57.5208C70.6309 56.3209 86.221 68.8786 88.0503 70.5957ZM92.8728 81.6226L72.1692 67.4511L69.363 63.7066C71.3793 64.6376 94.4734 80.1123 92.8728 81.6226ZM92.2076 71.2991C100.169 76.9057 109.523 81.4364 117.318 87.2497C118.17 87.8911 123.492 91.7184 122.619 92.6494C114.72 86.9808 106.072 82.3673 98.1942 76.6781C97.3627 76.0574 91.293 72.2301 92.2076 71.2991ZM97.7161 67.8442C98.9841 67.5546 99.6493 68.2787 100.585 68.7752C105.49 71.4026 113.847 76.5126 118.191 79.8434C119.043 80.5054 120.145 81.995 121.247 82.657C121.351 83.1742 120.561 83.1121 120.207 82.988C115.759 81.5605 109.274 75.1265 104.472 73.3266L97.7161 67.8442ZM100.502 60.2723C103.62 61.4929 106.925 63.3963 109.835 65.0927C122.348 72.3129 134.966 80.133 146.149 89.1945C140.953 86.9394 136.151 83.8155 131.411 80.795C120.997 74.1955 110.604 67.327 100.502 60.2723ZM149.538 99.2489L165.502 111.227C162.363 110.131 159.12 108.062 156.293 106.283C148.644 101.483 137.876 95.4009 130.975 90.1875C129.936 89.4013 128.751 88.2842 128.169 87.1463L149.538 99.2489ZM157.582 96.7456C157.042 96.3112 153.612 94.1389 154.443 93.3321C164.837 99.7041 175.001 106.655 184.189 114.682C183.004 114.91 182.36 114.103 181.487 113.586C173.733 108.807 164.546 102.559 157.582 96.7456ZM72.1484 38.9221C78.5091 42.7081 85.348 46.1009 91.4385 50.342C92.3947 51.0247 99.3791 55.783 98.4021 56.8174C91.2514 50.9833 81.0243 47.1767 73.9776 41.5495C73.063 40.8254 71.8574 40.3703 72.1484 38.9221ZM68.677 43.0598C76.9917 48.1284 85.1609 53.3625 93.1015 59.0104C93.9329 59.6103 100.003 63.479 99.1088 64.41L83.3732 54.9762C80.3592 51.7695 76.0147 49.8041 72.481 47.1767C71.9197 46.7423 67.9079 43.7838 68.677 43.0598ZM67.409 22.4336L66.5567 25.1231L64.9354 24.7507L67.409 22.4336ZM63.2308 23.0956L62.8983 25.5989L60.2583 27.0885L58.5538 26.0541L63.2308 23.0956ZM51.6942 28.5573L53.2948 28.4539L52.6088 30.833L48.597 33.9156L46.3104 33.1087L51.6942 28.5573ZM41.8205 34.4948L43.3795 36.8119L40.9682 39.6462L40.4901 38.6325L41.8205 34.4948ZM36.0002 40.3082L36.894 41.6943L35.9794 46.6181L34.0254 46.0182L36.0002 40.3082ZM28.9327 50.1144L31.8844 47.3836L31.7597 52.9487L30.2007 54.521L28.9327 52.6384V50.1144ZM27.4152 55.9692L28.6209 60.5827L27.4152 61.2654L26.6045 59.0311L27.4152 55.9692ZM24.2556 64.6789L26.3967 68.258L25.877 70.4303L24.2556 67.8235V64.6789ZM22.073 74.9196L25.191 79.8641L24.5882 82.388L21.8859 77.2987L22.073 74.9196ZM21.4702 85.0775L25.586 90.8288L25.5028 92.7528L23.05 90.1047L21.4702 85.0775ZM24.5882 101.835L23.6528 98.2145L28.704 104.111L28.8287 105.683L24.5882 101.835ZM21.5118 130.943L19.8488 133.964L18.4353 134.398L18.3938 132.143L21.6157 129.288L21.5118 130.943ZM28.4754 128.13L25.6276 129.495L28.1635 125.647L29.0158 126.164L28.4754 128.13ZM31.7181 115.282L28.2467 112.427L29.2652 111.393L34.2333 115.241L34.4619 116.358L31.7181 115.282ZM39.4716 123.082L36.7693 121.861L35.3558 119.585L41.0514 122.833L39.4716 123.082ZM34.9816 106.552C29.4108 94.7596 28.2675 75.1885 32.0507 62.7136C35.9378 49.8662 50.2599 36.874 63.1269 33.4191C58.1381 46.9285 59.1774 61.2033 61.4848 75.1472L62.9398 77.1953L61.8173 77.0091C61.8381 77.2367 61.8797 77.4436 61.9213 77.6711C63.1269 80.9812 78.426 88.5117 81.7934 91.615C82.0221 94.0562 67.7416 104.4 64.9977 105.848C60.2168 108.352 50.8835 112.117 45.7284 113.524C39.6171 115.2 37.3305 111.538 34.9816 106.552ZM81.8142 100.47L80.8788 104.566L77.1788 106.655L76.8878 106.138L80.9204 99.8696L81.8142 100.47ZM72.1692 108.621L68.0534 113.089L66.4736 112.241L71.9197 107.069L72.1692 108.621ZM63.3348 114.662L60.1752 117.579L58.0549 117.392L60.9443 113.255L62.8151 112.448L63.3348 114.662ZM55.415 115.055L54.1262 118.385L48.6385 119.916L48.5554 118.903L55.415 115.055ZM49.8234 132.329L46.4975 132.081L43.9615 129.909L48.4099 130.198L50.2183 131.357L49.8234 132.329ZM62.7735 134.605L57.5145 136.053L56.8701 135.143L61.069 132.474L64.0207 132.764L62.7735 134.605ZM73.1669 133.488L70.1113 134.564L68.8641 133.695L73.749 130.074L74.3518 131.191L73.1669 133.488ZM82.5002 126.371L80.3176 128.916L78.9041 128.792L81.7727 123.93L82.5002 124.364V126.371ZM88.1126 120.558L87.3435 120.392L87.1772 116.627L88.3413 115.655L88.757 118.22L88.1126 120.558ZM90.6902 101.835C87.9879 108.186 84.4749 112.717 79.985 117.682C72.6265 125.792 62.337 132.453 52.0891 124.675C60.2999 121.344 69.0927 118.923 76.5136 113.875C82.4586 109.821 86.2002 104.276 91.1475 99.5385C92.1868 100.076 90.9604 101.194 90.6902 101.835ZM101.541 94.6975C90.8565 86.836 78.6754 79.9882 69.363 70.6164C70.5062 70.4096 71.2338 71.1337 72.0652 71.6922C81.3777 77.8987 91.002 85.574 100.231 92.2149C100.356 92.2977 103.786 95.194 101.541 94.6975ZM101.873 85.0775C106.842 87.3325 111.81 90.684 116.341 93.7252C121.371 97.118 127.483 101.152 132.264 104.752C133.054 105.331 134.051 106.159 134.384 107.11L107.922 90.5599L101.873 85.0775ZM138.25 117.372C133.594 115.137 126.049 110.131 121.559 107.131C118.295 104.938 113.181 101.525 110.375 99.0006C109.627 98.3179 108.442 98.2559 108.795 96.7663L141.285 117.455C141.285 119.006 138.874 117.661 138.25 117.372ZM150.078 116.627C147.625 115.117 144.923 113.338 142.616 111.641C142.241 111.372 140.1 110.917 141.306 109.862C142.117 109.159 157.665 119.751 160.18 120.33L166.209 125.006C160.846 122.937 155.025 119.668 150.078 116.627ZM166.562 119.503L129.541 96.1043C139.789 100.159 150.016 106.51 158.996 112.903C161.282 114.537 163.797 116.213 166.021 117.93C166.583 118.365 167.955 118.427 166.562 119.503ZM178.182 117.558C184.854 121.116 195.684 128.874 201.92 133.55C204.352 135.371 206.784 137.77 209.092 139.839L207.637 139.901L172.424 115.386C174.253 115.862 176.56 116.689 178.182 117.558ZM211.17 148.756C198.844 140.522 184.958 134.171 173.817 124.344L213.228 148.445L211.17 148.756ZM217.739 138.101C206.784 131.233 195.788 124.158 186.268 115.386L218.072 136.736L217.739 138.101ZM241.581 169.092C235.761 163.9 228.756 158.748 223.247 153.266C222.437 152.48 221.314 151.797 221.543 150.494C227.592 154.093 232.207 159.058 237.071 164.003C237.923 164.872 242.454 168.141 241.581 169.092ZM244.346 162.203C237.632 156.1 229.733 151.259 223.601 144.308C225.389 144.639 227.197 146.149 228.673 147.183C233.246 150.39 239.399 155.562 242.974 159.803C243.639 160.569 244.658 160.92 244.346 162.203ZM222.229 133.281C223.83 133.488 225.389 135.081 226.698 136.074C229.712 138.35 233.038 141.308 235.803 143.873C238.713 146.584 241.27 149.687 244.367 152.231L243.328 152.562L222.229 133.281ZM232.248 130.55C188.721 94.6561 143.343 60.9344 93.8913 33.4191C93.434 32.7777 97.0509 29.5297 97.7161 28.909C102.144 24.8335 107.174 21.875 111.893 18.2546C112.392 17.8615 115.821 15.5651 115.011 14.7997C111.103 16.5168 107.631 19.0614 104.326 21.7095C102.456 23.1991 94.0992 31.6606 93.0807 31.9295C91.0851 32.4674 89.9419 30.4813 88.0503 30.6468L88.7362 27.8953C87.3435 27.585 86.8862 29.24 85.639 29.2607C84.4542 29.2607 83.1446 27.8746 81.8142 27.8746C80.9412 26.985 84.1008 25.2265 84.6412 24.8748C92.7689 19.4338 101.707 16.103 110.646 12.8757C114.366 11.5516 117.775 8.69666 121.933 9.29662L119.521 12.0688C122.286 11.8826 123.741 9.06905 126.464 8.63459C126.88 8.57253 128.065 8.55184 129.561 8.59322C124.968 11.1792 118.316 15.9996 118.981 16.5789L130.954 8.61391C134.53 8.69666 138.895 8.96561 139.227 9.29662C139.56 10.9103 138.999 10.4138 138.333 10.8482C130.767 15.7306 121.87 19.7442 115.717 26.5092C118.648 25.1438 121.954 23.1163 124.635 21.2958C128.584 18.6063 138.209 9.79313 142.865 10.7655C143.925 10.993 144.673 12.0688 145.443 12.2757C146.586 12.6067 147.625 12.2137 149.08 12.8757C150.556 13.5584 151.658 15.441 153.674 15.5651V17.4891C151.72 18.2753 149.018 19.7855 147.355 21.0061C144.715 22.9095 142.179 24.9576 139.29 26.8402C140.204 25.992 141.057 25.1024 141.805 24.1714C138.645 25.4334 136.213 28.0401 133.282 29.7986C131.037 31.1434 127.836 31.1847 126.589 33.7914C130.435 32.8191 134.446 30.7917 137.772 28.1229C137.793 28.247 137.814 28.4125 137.855 28.578C143.385 27.8746 151.263 18.2546 155.108 17.1581C156.605 16.7444 160.991 19.1856 162.675 20.0545C164.733 21.1096 166.77 22.1854 168.807 23.2818C167.186 23.799 165.315 24.668 164.483 25.0403C153.238 29.9228 142.221 36.0258 131.411 41.7564L131.869 43.4942L154.422 56.5485L170.906 68.589L172.403 68.8373C185.79 62.9204 197.638 53.9418 211.129 48.3353C217.157 52.2246 223.144 56.1968 229.089 60.2517L230.585 61.2447C234.826 64.141 239.045 67.0374 243.244 69.9751C243.826 70.3889 244.429 70.8026 245.011 71.2164C246.674 72.3749 248.337 73.5542 250 74.7127C250.416 75.0023 250.832 75.3127 251.247 75.6023C253.846 77.4229 256.444 79.2641 259.022 81.1054C259.375 80.9605 259.728 80.795 260.082 80.6502L259.167 81.2088C261.661 82.9673 264.156 84.7465 266.63 86.5257C266.962 86.7532 267.295 87.0015 267.607 87.2291C279.725 95.8767 291.761 104.545 303.796 113.007L304.545 114.682L249.252 144.68C243.099 140.543 237.861 135.184 232.248 130.55ZM307.205 149.025C306.436 149.314 305.501 149.232 304.752 149.666C289.599 158.645 275.007 168.161 259.313 176.064C257.629 176.933 250.291 181.878 249.21 180.802C250.811 172.899 250.748 162.782 252.848 155.169C254.428 149.501 262.826 147.142 267.544 144.328C282.261 135.515 297.02 126.806 311.799 118.137C311.758 128.605 308.868 138.743 307.205 149.025Z"
        fill="#1E1E1E" />
</svg>